<svg xmlns="http://www.w3.org/2000/svg" viewBox="0 0 487.02 143.75"><defs><style>.cls-1{fill:#fad2cf;}.cls-2{fill:#aecbfa;}.cls-3{fill:#a8dab5;}.cls-4{fill:#fbbc04;}.cls-5{fill:#fde293;}.cls-6{fill:#4285f4;}.cls-7{fill:#34a853;}.cls-10,.cls-11,.cls-12,.cls-13,.cls-14,.cls-8{fill:none;stroke-miterlimit:10;}.cls-8{stroke:#0d652d;}.cls-10,.cls-11,.cls-12,.cls-8{stroke-width:0.94px;}.cls-9{fill:#ea4335;}.cls-10{stroke:#e37400;}.cls-11{stroke:#174ea6;}.cls-12,.cls-13{stroke:#a50e0e;}.cls-13{stroke-width:0.93px;}.cls-14{stroke:#202124;stroke-width:0.86px;}</style></defs><title>devfest-2019</title><g id="Warstwa_2" data-name="Warstwa 2"><g id="Artwork"><rect class="cls-1" x="235.21" width="26.5" height="65.39"/><rect class="cls-2" x="443.86" width="26.5" height="65.39"/><rect class="cls-3" width="26.5" height="65.39"/><path class="cls-4" d="M98.62,65.39h0V0h0A23.38,23.38,0,0,0,75.24,23.38V42A23.38,23.38,0,0,0,98.62,65.39Z"/><rect class="cls-5" x="98.62" width="29.63" height="65.39"/><polygon class="cls-2" points="144.29 0 182.05 65.39 182.05 0 144.29 0"/><polygon class="cls-6" points="219.8 0 182.05 0 182.05 65.39 182.05 65.39 219.8 0"/><path class="cls-7" d="M26.5,0a32.7,32.7,0,1,1,0,65.39Z"/><path class="cls-8" d="M26.5,52.9a20.21,20.21,0,0,0,0-40.42H13.25V28"/><path class="cls-4" d="M394.37,49a24.52,24.52,0,1,1,0-49Z"/><rect class="cls-9" x="261.72" width="21.8" height="16.35"/><rect class="cls-6" x="427.2" width="16.66" height="16.35"/><rect class="cls-6" x="470.36" width="16.66" height="16.35"/><rect class="cls-9" x="261.72" y="32.69" width="16.35" height="16.35"/><rect class="cls-4" x="394.37" width="21.8" height="16.35"/><path class="cls-5" d="M394.37,16.35V49h-21.8V65.39h21.8a24.52,24.52,0,0,0,0-49Z"/><path class="cls-10" d="M382.94,36.2a16.34,16.34,0,0,1,11.43-28h12.26"/><line class="cls-11" x1="435.53" y1="8.33" x2="478.69" y2="8.33"/><path class="cls-7" d="M322.49,65.39h0V0h0A23.39,23.39,0,0,0,299.1,23.38V42A23.39,23.39,0,0,0,322.49,65.39Z"/><rect class="cls-3" x="322.49" width="29.63" height="65.39"/><line class="cls-8" x1="315.19" y1="22.82" x2="310.97" y2="22.79"/><line class="cls-8" x1="352.12" y1="22.86" x2="323.09" y2="22.86"/><line class="cls-8" x1="352.12" y1="42.53" x2="343.45" y2="42.53"/><line class="cls-8" x1="335.55" y1="42.53" x2="328.96" y2="42.53"/><circle class="cls-11" cx="182.05" cy="38.58" r="4.16"/><circle class="cls-11" cx="196.58" cy="13.4" r="4.16"/><line class="cls-11" x1="194.51" y1="17" x2="184.1" y2="35.02"/><circle class="cls-11" cx="167.51" cy="13.4" r="4.16"/><line class="cls-11" x1="169.59" y1="17" x2="179.99" y2="35.02"/><rect class="cls-8" x="9.9" y="29.34" width="6.71" height="6.71" transform="translate(27 0.21) rotate(45)"/><rect class="cls-8" x="336.7" y="39.73" width="5.59" height="5.59" transform="translate(129.51 -227.6) rotate(45)"/><rect class="cls-8" x="316.43" y="20.06" width="5.59" height="5.59" transform="translate(109.66 -219.03) rotate(45)"/><circle class="cls-11" cx="457.11" cy="22.16" r="3.95"/><circle class="cls-11" cx="457.11" cy="37.31" r="3.95"/><circle class="cls-11" cx="457.11" cy="52.46" r="3.95"/><path class="cls-10" d="M386.64,57.21h7.73a16.35,16.35,0,1,0,0-32.69"/><polyline class="cls-12" points="265.31 40.81 248.47 40.81 248.47 57.65"/><polyline class="cls-13" points="272.58 8.17 248.47 8.17 248.47 32.28"/><line class="cls-10" x1="128.25" y1="22.86" x2="98.5" y2="22.86"/><line class="cls-10" x1="128.25" y1="32.69" x2="98.5" y2="32.69"/><line class="cls-10" x1="128.25" y1="42.53" x2="98.5" y2="42.53"/><path class="cls-14" d="M329,94.28a16.34,16.34,0,0,1,16.35,16.34V127A16.35,16.35,0,0,1,329,143.32H316.72"/><path class="cls-14" d="M217.9,94.28a16.33,16.33,0,0,1,16.34,16.34V127a16.35,16.35,0,1,1-32.69,0V110.62A16.34,16.34,0,0,1,217.9,94.28Z"/><line class="cls-14" x1="273.86" y1="94.43" x2="273.86" y2="143.32"/><polyline class="cls-14" points="168.18 143.32 143.87 143.32 143.87 135.14"/><path class="cls-14" d="M143.86,135.14a11.45,11.45,0,0,1,11.45-11.44,14.71,14.71,0,1,0,0-29.42H143.86"/><path class="cls-14" d="M329,94.28a16.35,16.35,0,1,0,16.35,16.34"/></g></g></svg>