<svg xmlns="http://www.w3.org/2000/svg" viewBox="0 0 45.41 21.97"><defs><style>.cls-1{fill:#fff;}</style></defs><title>gdg-icon-white</title><g id="Warstwa_2" data-name="Warstwa 2"><g id="Artwork"><path class="cls-1" d="M19.51,20.16a3.62,3.62,0,0,1-5,1.32L1.81,14.13A3.63,3.63,0,0,1,3.63,7.36a3.58,3.58,0,0,1,1.81.48L18.19,15.2A3.63,3.63,0,0,1,19.51,20.16Z"/><path class="cls-1" d="M25.9,1.81a3.62,3.62,0,0,1,5-1.32L43.6,7.84a3.63,3.63,0,0,1-1.82,6.77A3.58,3.58,0,0,1,40,14.13L27.23,6.77A3.63,3.63,0,0,1,25.9,1.81Z"/><path class="cls-1" d="M18.19,6.77l-6.41,3.7L5.89,7.07A4.52,4.52,0,0,0,4.15,6.5l10.41-6a3.63,3.63,0,0,1,3.63,6.28Z"/><path class="cls-1" d="M27.23,15.2l6.4-3.7,5.89,3.4a4.52,4.52,0,0,0,1.74.57l-10.41,6a3.62,3.62,0,1,1-3.62-6.28Z"/></g></g></svg>