<svg xmlns="http://www.w3.org/2000/svg" viewBox="0 0 1084.92 543.38"><defs><style>.cls-1,.cls-11,.cls-12,.cls-13,.cls-14,.cls-15,.cls-16,.cls-17,.cls-18,.cls-19,.cls-20,.cls-21,.cls-22,.cls-23,.cls-24,.cls-3,.cls-6{fill:none;stroke-miterlimit:10;}.cls-1,.cls-14{stroke:#a8dab5;}.cls-1{stroke-width:0.7px;}.cls-2{fill:#fde293;}.cls-3{stroke:#fde293;}.cls-18,.cls-19,.cls-20,.cls-21,.cls-22,.cls-23,.cls-24,.cls-3,.cls-6{stroke-width:0.94px;}.cls-4{fill:#fad2cf;}.cls-5{fill:#aecbfa;}.cls-6{stroke:#4285f4;}.cls-7{fill:#fbbc04;}.cls-8{fill:#4285f4;}.cls-9{fill:#ea4335;}.cls-10{fill:#a8dab5;}.cls-11,.cls-17,.cls-23{stroke:#aecbfa;}.cls-11,.cls-12,.cls-13,.cls-14,.cls-15,.cls-16{stroke-width:0.94px;}.cls-12,.cls-18{stroke:#ea4335;}.cls-13{stroke:#1e8e3e;}.cls-15{stroke:#174ea6;}.cls-16{stroke:#e37400;}.cls-17{stroke-width:0.93px;}.cls-19{stroke:#34a853;}.cls-20{stroke:#fbbc04;}.cls-21{stroke:#fff;}.cls-22{stroke:#f9ab00;}.cls-24{stroke:#fad2cf;}.cls-25{fill:#fff;}.cls-26{fill:#34a853;}</style></defs><title>devfest-artwork</title><g id="Warstwa_2" data-name="Warstwa 2"><g id="Artwork"><line class="cls-1" x1="1041.93" y1="288.86" x2="1041.93" y2="273.68"/><line class="cls-1" x1="1041.93" y1="267.46" x2="1041.93" y2="259.96"/><circle class="cls-1" cx="1041.93" cy="270.57" r="3.11"/><path class="cls-2" d="M920.94,131.2c4.95,0,10.26,11,10.26,27.38S925.89,186,920.94,186s-10.26-11-10.26-27.39S916,131.2,920.94,131.2m0-.94c-6.18,0-11.19,12.68-11.19,28.32s5,28.33,11.19,28.33,11.19-12.68,11.19-28.33-5-28.32-11.19-28.32Z"/><line class="cls-3" x1="894.18" y1="149.14" x2="947.82" y2="149.14"/><path class="cls-2" d="M920.94,131.2a27.39,27.39,0,1,1-27.39,27.38,27.42,27.42,0,0,1,27.39-27.38m0-.94a28.33,28.33,0,1,0,28.32,28.32,28.32,28.32,0,0,0-28.32-28.32Z"/><line class="cls-3" x1="894.35" y1="168.02" x2="947.65" y2="168.02"/><polyline class="cls-4" points="1084.92 394.4 1062.28 355.19 1039.64 394.4"/><rect class="cls-2" x="297.36" y="371.53" width="17.33" height="6.53"/><rect class="cls-4" x="469.97" y="4.93" width="26.5" height="65.39"/><rect class="cls-5" x="926.46" y="280.84" width="26.5" height="65.39"/><line class="cls-6" x1="935.46" y1="329.59" x2="917.47" y2="329.59"/><line class="cls-6" x1="935.46" y1="315.58" x2="917.47" y2="315.58"/><rect class="cls-4" x="138.77" y="201.12" width="32.75" height="65.39"/><path class="cls-7" d="M77.54,51.59h65.39a23.38,23.38,0,0,0-23.38-23.38H100.92A23.38,23.38,0,0,0,77.54,51.59Z"/><rect class="cls-2" x="14.3" y="437.69" width="56.39" height="65.39"/><polygon class="cls-5" points="258.47 3.32 296.22 68.71 296.22 3.32 258.47 3.32"/><polygon class="cls-8" points="323.86 505.63 291.16 486.75 258.47 543.38 258.47 543.38 323.86 505.63"/><rect class="cls-9" x="158.98" y="391.03" width="21.8" height="16.35"/><rect class="cls-8" x="1053.95" y="47.37" width="16.66" height="16.35" transform="translate(350.41 -734.88) rotate(45)"/><rect class="cls-8" x="1054.06" y="485.37" width="16.66" height="16.35"/><rect class="cls-9" x="633.69" y="434.79" width="16.35" height="16.35"/><rect class="cls-9" x="1037.47" y="140.13" width="21.8" height="16.35"/><path class="cls-7" d="M818.58,492.76l-23.12,23.12-15.41-15.41L768.49,512l15.42,15.41a24.52,24.52,0,0,0,34.67-34.68Z"/><path class="cls-10" d="M529.54,489.2h0L483.3,443h0a23.38,23.38,0,0,0,0,33.06l13.17,13.17A23.39,23.39,0,0,0,529.54,489.2Z"/><rect class="cls-10" x="739.89" y="127.69" width="65.39" height="29.63"/><circle class="cls-11" cx="254.31" cy="441.31" r="4.16"/><path class="cls-2" d="M380.11,88.55a3.22,3.22,0,1,1-3.22,3.21,3.22,3.22,0,0,1,3.22-3.21m0-.94a4.16,4.16,0,1,0,4.16,4.15,4.15,4.15,0,0,0-4.16-4.15Z"/><path class="cls-2" d="M380.11,104.69a3.22,3.22,0,1,1-3.22,3.21,3.22,3.22,0,0,1,3.22-3.21m0-.94a4.16,4.16,0,1,0,4.16,4.15,4.15,4.15,0,0,0-4.16-4.15Z"/><path class="cls-2" d="M380.11,72.41a3.22,3.22,0,1,1-3.22,3.21,3.22,3.22,0,0,1,3.22-3.21m0-.94a4.16,4.16,0,1,0,4.16,4.15,4.15,4.15,0,0,0-4.16-4.15Z"/><rect class="cls-12" x="222.37" y="327.57" width="6.71" height="6.71" transform="translate(300.11 -62.69) rotate(45)"/><rect class="cls-10" x="189.38" y="134.25" width="5.59" height="5.59" transform="translate(-40.62 176.03) rotate(-45)"/><rect class="cls-13" x="179.34" y="124.2" width="5.59" height="5.59" transform="translate(143.15 -91.59) rotate(45)"/><rect class="cls-14" x="167.09" y="111.95" width="5.59" height="5.59" transform="translate(130.9 -86.51) rotate(45)"/><circle class="cls-15" cx="818.38" cy="52.59" r="3.95"/><circle class="cls-15" cx="887.18" cy="258.97" r="3.95"/><circle class="cls-2" cx="803.5" cy="379.85" r="6.37"/><path class="cls-16" d="M943.6,488.33h7.73a16.35,16.35,0,1,0,0-32.69"/><polyline class="cls-11" points="745.3 423.32 733.39 411.41 721.48 423.32"/><polyline class="cls-17" points="544.76 132.25 561.82 149.3 578.87 132.25"/><path class="cls-18" d="M1031.17,220.1l-13.09,13.09a16.34,16.34,0,1,0,23.11,23.11l20.47-20.46"/><line class="cls-18" x1="1062.39" y1="224.49" x2="1043.77" y2="243.11"/><line class="cls-18" x1="1061.06" y1="214.32" x2="1038.02" y2="237.36"/><line class="cls-18" x1="1051.78" y1="212.11" x2="1032.28" y2="231.62"/><line class="cls-6" x1="50.22" y1="175.24" x2="50.22" y2="148.9"/><line class="cls-6" x1="42.1" y1="181.49" x2="42.1" y2="148.9"/><polyline class="cls-6" points="20.18 162.7 33.97 162.7 33.97 148.9"/><path class="cls-6" d="M41.39,121.41a16.33,16.33,0,0,1,16.34,16.34V166.7"/><path class="cls-6" d="M57.74,137.75a16.35,16.35,0,0,0-30.51-8.17"/><line class="cls-6" x1="27.23" y1="129.58" x2="16.2" y2="148.9"/><path class="cls-19" d="M811.37,400.08l13.09,13.08a16.34,16.34,0,0,0,23.12-23.11l-11.31-11.32"/><line class="cls-19" x1="829.63" y1="382.72" x2="837.92" y2="391.01"/><line class="cls-19" x1="822.56" y1="387.14" x2="832.18" y2="396.75"/><line class="cls-19" x1="803.39" y1="379.46" x2="826.43" y2="402.5"/><line class="cls-20" x1="404.71" y1="147.03" x2="404.71" y2="127.28"/><line class="cls-20" x1="396.48" y1="140.78" x2="396.48" y2="124.78"/><line class="cls-20" x1="388.25" y1="140.78" x2="388.25" y2="122.9"/><line class="cls-20" x1="380.02" y1="140.78" x2="380.02" y2="107.9"/><line class="cls-20" x1="372.56" y1="151.22" x2="367.48" y2="132.34"/><path class="cls-20" d="M372.56,151.22A16.35,16.35,0,0,0,404.71,147"/><rect class="cls-21" x="28.82" y="451.06" width="27.36" height="27.36"/><rect class="cls-10" x="129.33" y="493.54" width="27.36" height="27.36"/><line class="cls-21" x1="157.35" y1="521.55" x2="128.38" y2="492.57"/><line class="cls-21" x1="128.38" y1="521.87" x2="157.48" y2="492.76"/><circle class="cls-2" cx="676.67" cy="43.57" r="19.67"/><polygon class="cls-22" points="671.11 52.92 686.78 43.87 671.11 34.83 671.11 52.92"/><line class="cls-23" x1="611.41" y1="495.14" x2="611.41" y2="518.93"/><line class="cls-23" x1="599.52" y1="507.04" x2="623.31" y2="507.04"/><path class="cls-9" d="M191,223v28.22l-6.24-6.24-.27-.27H154.57V223H191m.94-.94h-38.3v23.59h30.46l7.84,7.83V222Z"/><line class="cls-19" x1="179.2" y1="475.77" x2="179.2" y2="502.15"/><line class="cls-19" x1="171.07" y1="469.51" x2="171.07" y2="502.15"/><polyline class="cls-19" points="152.16 488.33 162.93 488.33 162.93 502.15"/><path class="cls-19" d="M170.35,525.12a16.38,16.38,0,0,0,16.38-16.38V484.33"/><path class="cls-19" d="M186.73,508.74a16.39,16.39,0,0,1-16.38,16.38H152.16"/><path class="cls-14" d="M9.62,303a10.88,10.88,0,0,1,21.75,0v24.68H50.76"/><path class="cls-19" d="M49.45,303a10.87,10.87,0,0,1,21.74,0"/><path class="cls-10" d="M61.41,342.55a21,21,0,0,1-42,0Z"/><path class="cls-18" d="M941.56,10.71a9.26,9.26,0,1,1-18.52,0"/><path class="cls-24" d="M967.15,47.41A17.89,17.89,0,0,1,949.26,65.3"/><path class="cls-18" d="M975.49,10.71A9.27,9.27,0,0,1,966.22,20a9.38,9.38,0,0,1-9.38-9.26L941.56,36.94h16.52"/><rect class="cls-25" x="951.16" width="16.51" height="10.71"/><line class="cls-14" x1="417.45" y1="431.69" x2="397.15" y2="431.69"/><line class="cls-14" x1="388.84" y1="431.69" x2="380.21" y2="431.69"/><rect class="cls-26" x="389.33" y="428.03" width="7.31" height="7.31" transform="translate(420.35 -151.45) rotate(45)"/><line class="cls-20" x1="358.14" y1="413.28" x2="358.14" y2="439.62"/><line class="cls-20" x1="366.26" y1="407.03" x2="366.26" y2="439.62"/><polyline class="cls-20" points="388.18 425.82 374.39 425.82 374.39 439.62"/><path class="cls-20" d="M367,467.11a16.35,16.35,0,0,1-16.34-16.34V421.82"/><path class="cls-20" d="M350.62,450.77a16.35,16.35,0,0,0,30.51,8.17"/><line class="cls-20" x1="381.13" y1="458.94" x2="392.16" y2="439.62"/><path class="cls-2" d="M10.74,148.37A9.78,9.78,0,1,1,1,158.15a9.79,9.79,0,0,1,9.78-9.78m0-1a10.74,10.74,0,1,0,10.73,10.74,10.74,10.74,0,0,0-10.73-10.74Z"/></g></g></svg>